<mxfile host="app.diagrams.net" modified="2021-11-02T01:00:25.999Z" agent="5.0 (Windows NT 10.0; Win64; x64) AppleWebKit/537.36 (KHTML, like Gecko) Chrome/95.0.4638.54 Safari/537.36" etag="wX20gSpqVfPFcNPpfoxt" version="15.6.3" type="github">
  <diagram id="cOn3V6splgMVrDX8cfL3" name="Page-1">
    <mxGraphModel dx="920" dy="551" grid="1" gridSize="10" guides="1" tooltips="1" connect="1" arrows="1" fold="1" page="1" pageScale="1" pageWidth="850" pageHeight="1100" math="0" shadow="0">
      <root>
        <mxCell id="0" />
        <mxCell id="1" parent="0" />
        <mxCell id="AiYJyIK1sZ-USPavSWI0-1" value="Nhanvien" style="swimlane;fontStyle=1;align=center;verticalAlign=top;childLayout=stackLayout;horizontal=1;startSize=26;horizontalStack=0;resizeParent=1;resizeParentMax=0;resizeLast=0;collapsible=1;marginBottom=0;" vertex="1" parent="1">
          <mxGeometry x="430" y="50" width="160" height="190" as="geometry" />
        </mxCell>
        <mxCell id="AiYJyIK1sZ-USPavSWI0-2" value="-Hoten: string&#xa;-Ngaysinh: string&#xa;#luongcoban: long int&#xa;#luong: long int&#xa;" style="text;strokeColor=none;fillColor=none;align=left;verticalAlign=top;spacingLeft=4;spacingRight=4;overflow=hidden;rotatable=0;points=[[0,0.5],[1,0.5]];portConstraint=eastwest;" vertex="1" parent="AiYJyIK1sZ-USPavSWI0-1">
          <mxGeometry y="26" width="160" height="64" as="geometry" />
        </mxCell>
        <mxCell id="AiYJyIK1sZ-USPavSWI0-3" value="" style="line;strokeWidth=1;fillColor=none;align=left;verticalAlign=middle;spacingTop=-1;spacingLeft=3;spacingRight=3;rotatable=0;labelPosition=right;points=[];portConstraint=eastwest;" vertex="1" parent="AiYJyIK1sZ-USPavSWI0-1">
          <mxGeometry y="90" width="160" height="8" as="geometry" />
        </mxCell>
        <mxCell id="AiYJyIK1sZ-USPavSWI0-4" value="+ Nhanvien()&#xa;+virtual Nhap(): void&#xa;+virtual Xuat(): const void&#xa;+virtual TinhLuong(): void=0&#xa;+virtual ~Nhanvien()" style="text;strokeColor=none;fillColor=none;align=left;verticalAlign=top;spacingLeft=4;spacingRight=4;overflow=hidden;rotatable=0;points=[[0,0.5],[1,0.5]];portConstraint=eastwest;" vertex="1" parent="AiYJyIK1sZ-USPavSWI0-1">
          <mxGeometry y="98" width="160" height="92" as="geometry" />
        </mxCell>
        <mxCell id="AiYJyIK1sZ-USPavSWI0-5" value="NhanvienSX" style="swimlane;fontStyle=1;align=center;verticalAlign=top;childLayout=stackLayout;horizontal=1;startSize=26;horizontalStack=0;resizeParent=1;resizeParentMax=0;resizeLast=0;collapsible=1;marginBottom=0;" vertex="1" parent="1">
          <mxGeometry x="680" y="390" width="160" height="150" as="geometry" />
        </mxCell>
        <mxCell id="AiYJyIK1sZ-USPavSWI0-6" value="-Sosanpham: int" style="text;strokeColor=none;fillColor=none;align=left;verticalAlign=top;spacingLeft=4;spacingRight=4;overflow=hidden;rotatable=0;points=[[0,0.5],[1,0.5]];portConstraint=eastwest;" vertex="1" parent="AiYJyIK1sZ-USPavSWI0-5">
          <mxGeometry y="26" width="160" height="26" as="geometry" />
        </mxCell>
        <mxCell id="AiYJyIK1sZ-USPavSWI0-7" value="" style="line;strokeWidth=1;fillColor=none;align=left;verticalAlign=middle;spacingTop=-1;spacingLeft=3;spacingRight=3;rotatable=0;labelPosition=right;points=[];portConstraint=eastwest;" vertex="1" parent="AiYJyIK1sZ-USPavSWI0-5">
          <mxGeometry y="52" width="160" height="8" as="geometry" />
        </mxCell>
        <mxCell id="AiYJyIK1sZ-USPavSWI0-8" value="+NhanvienSX()&#xa;+Nhap(): void&#xa;+Xuat(const: void&#xa;+TinhLuong(): void&#xa;+~NhanvienSX()" style="text;strokeColor=none;fillColor=none;align=left;verticalAlign=top;spacingLeft=4;spacingRight=4;overflow=hidden;rotatable=0;points=[[0,0.5],[1,0.5]];portConstraint=eastwest;" vertex="1" parent="AiYJyIK1sZ-USPavSWI0-5">
          <mxGeometry y="60" width="160" height="90" as="geometry" />
        </mxCell>
        <mxCell id="AiYJyIK1sZ-USPavSWI0-9" value="Extends" style="endArrow=block;endSize=16;endFill=0;html=1;rounded=0;exitX=0.5;exitY=0;exitDx=0;exitDy=0;entryX=0.705;entryY=1.021;entryDx=0;entryDy=0;entryPerimeter=0;" edge="1" parent="1" source="AiYJyIK1sZ-USPavSWI0-5" target="AiYJyIK1sZ-USPavSWI0-4">
          <mxGeometry width="160" relative="1" as="geometry">
            <mxPoint x="430" y="250" as="sourcePoint" />
            <mxPoint x="590" y="250" as="targetPoint" />
            <Array as="points" />
          </mxGeometry>
        </mxCell>
        <mxCell id="AiYJyIK1sZ-USPavSWI0-10" value="NhanvienVP" style="swimlane;fontStyle=1;align=center;verticalAlign=top;childLayout=stackLayout;horizontal=1;startSize=26;horizontalStack=0;resizeParent=1;resizeParentMax=0;resizeLast=0;collapsible=1;marginBottom=0;" vertex="1" parent="1">
          <mxGeometry x="440" y="390" width="160" height="168" as="geometry" />
        </mxCell>
        <mxCell id="AiYJyIK1sZ-USPavSWI0-11" value="-Songay: int&#xa;-trocap: long int" style="text;strokeColor=none;fillColor=none;align=left;verticalAlign=top;spacingLeft=4;spacingRight=4;overflow=hidden;rotatable=0;points=[[0,0.5],[1,0.5]];portConstraint=eastwest;" vertex="1" parent="AiYJyIK1sZ-USPavSWI0-10">
          <mxGeometry y="26" width="160" height="44" as="geometry" />
        </mxCell>
        <mxCell id="AiYJyIK1sZ-USPavSWI0-12" value="" style="line;strokeWidth=1;fillColor=none;align=left;verticalAlign=middle;spacingTop=-1;spacingLeft=3;spacingRight=3;rotatable=0;labelPosition=right;points=[];portConstraint=eastwest;" vertex="1" parent="AiYJyIK1sZ-USPavSWI0-10">
          <mxGeometry y="70" width="160" height="8" as="geometry" />
        </mxCell>
        <mxCell id="AiYJyIK1sZ-USPavSWI0-13" value="+NhanvienVP()&#xa;+Nhap(): void&#xa;+Xuat() const: void&#xa;+TinhLuong(): void&#xa;+~NhanvienVP()" style="text;strokeColor=none;fillColor=none;align=left;verticalAlign=top;spacingLeft=4;spacingRight=4;overflow=hidden;rotatable=0;points=[[0,0.5],[1,0.5]];portConstraint=eastwest;" vertex="1" parent="AiYJyIK1sZ-USPavSWI0-10">
          <mxGeometry y="78" width="160" height="90" as="geometry" />
        </mxCell>
        <mxCell id="AiYJyIK1sZ-USPavSWI0-14" value="Extends" style="endArrow=block;endSize=16;endFill=0;html=1;rounded=0;exitX=0.382;exitY=-0.013;exitDx=0;exitDy=0;entryX=0.705;entryY=1.021;entryDx=0;entryDy=0;entryPerimeter=0;exitPerimeter=0;" edge="1" parent="1" source="AiYJyIK1sZ-USPavSWI0-10">
          <mxGeometry width="160" relative="1" as="geometry">
            <mxPoint x="717.2" y="390" as="sourcePoint" />
            <mxPoint x="500.00000000000017" y="241.9319999999999" as="targetPoint" />
            <Array as="points" />
          </mxGeometry>
        </mxCell>
        <mxCell id="AiYJyIK1sZ-USPavSWI0-15" value="NhanvienQL" style="swimlane;fontStyle=1;align=center;verticalAlign=top;childLayout=stackLayout;horizontal=1;startSize=26;horizontalStack=0;resizeParent=1;resizeParentMax=0;resizeLast=0;collapsible=1;marginBottom=0;" vertex="1" parent="1">
          <mxGeometry x="180" y="390" width="160" height="168" as="geometry" />
        </mxCell>
        <mxCell id="AiYJyIK1sZ-USPavSWI0-16" value="-Thuong: long int&#xa;- hesoCV: int" style="text;strokeColor=none;fillColor=none;align=left;verticalAlign=top;spacingLeft=4;spacingRight=4;overflow=hidden;rotatable=0;points=[[0,0.5],[1,0.5]];portConstraint=eastwest;" vertex="1" parent="AiYJyIK1sZ-USPavSWI0-15">
          <mxGeometry y="26" width="160" height="44" as="geometry" />
        </mxCell>
        <mxCell id="AiYJyIK1sZ-USPavSWI0-17" value="" style="line;strokeWidth=1;fillColor=none;align=left;verticalAlign=middle;spacingTop=-1;spacingLeft=3;spacingRight=3;rotatable=0;labelPosition=right;points=[];portConstraint=eastwest;" vertex="1" parent="AiYJyIK1sZ-USPavSWI0-15">
          <mxGeometry y="70" width="160" height="8" as="geometry" />
        </mxCell>
        <mxCell id="AiYJyIK1sZ-USPavSWI0-18" value="+NhanvienQL()&#xa;+Nhap(): void&#xa;+Xuat() const: void&#xa;+TinhLuong(): void&#xa;+~NhanvienQL()" style="text;strokeColor=none;fillColor=none;align=left;verticalAlign=top;spacingLeft=4;spacingRight=4;overflow=hidden;rotatable=0;points=[[0,0.5],[1,0.5]];portConstraint=eastwest;" vertex="1" parent="AiYJyIK1sZ-USPavSWI0-15">
          <mxGeometry y="78" width="160" height="90" as="geometry" />
        </mxCell>
        <mxCell id="AiYJyIK1sZ-USPavSWI0-19" value="Extends" style="endArrow=block;endSize=16;endFill=0;html=1;rounded=0;exitX=0.5;exitY=0;exitDx=0;exitDy=0;entryX=0.705;entryY=1.021;entryDx=0;entryDy=0;entryPerimeter=0;" edge="1" parent="1" source="AiYJyIK1sZ-USPavSWI0-15">
          <mxGeometry width="160" relative="1" as="geometry">
            <mxPoint x="461.1200000000001" y="385.886" as="sourcePoint" />
            <mxPoint x="460.0000000000002" y="240.0019999999999" as="targetPoint" />
            <Array as="points" />
          </mxGeometry>
        </mxCell>
        <mxCell id="AiYJyIK1sZ-USPavSWI0-21" value="Congty" style="swimlane;fontStyle=1;align=center;verticalAlign=top;childLayout=stackLayout;horizontal=1;startSize=26;horizontalStack=0;resizeParent=1;resizeParentMax=0;resizeLast=0;collapsible=1;marginBottom=0;" vertex="1" parent="1">
          <mxGeometry x="50" y="60" width="160" height="168" as="geometry" />
        </mxCell>
        <mxCell id="AiYJyIK1sZ-USPavSWI0-22" value="-DSNV: Nhanvien**&#xa;-SLNV" style="text;strokeColor=none;fillColor=none;align=left;verticalAlign=top;spacingLeft=4;spacingRight=4;overflow=hidden;rotatable=0;points=[[0,0.5],[1,0.5]];portConstraint=eastwest;" vertex="1" parent="AiYJyIK1sZ-USPavSWI0-21">
          <mxGeometry y="26" width="160" height="44" as="geometry" />
        </mxCell>
        <mxCell id="AiYJyIK1sZ-USPavSWI0-23" value="" style="line;strokeWidth=1;fillColor=none;align=left;verticalAlign=middle;spacingTop=-1;spacingLeft=3;spacingRight=3;rotatable=0;labelPosition=right;points=[];portConstraint=eastwest;" vertex="1" parent="AiYJyIK1sZ-USPavSWI0-21">
          <mxGeometry y="70" width="160" height="8" as="geometry" />
        </mxCell>
        <mxCell id="AiYJyIK1sZ-USPavSWI0-24" value="+Congty()&#xa;+Nhap():void&#xa;+Xuat() const: void&#xa;+~Congty()" style="text;strokeColor=none;fillColor=none;align=left;verticalAlign=top;spacingLeft=4;spacingRight=4;overflow=hidden;rotatable=0;points=[[0,0.5],[1,0.5]];portConstraint=eastwest;" vertex="1" parent="AiYJyIK1sZ-USPavSWI0-21">
          <mxGeometry y="78" width="160" height="90" as="geometry" />
        </mxCell>
        <mxCell id="AiYJyIK1sZ-USPavSWI0-25" value="" style="endArrow=diamondThin;endFill=1;endSize=24;html=1;rounded=0;entryX=1.031;entryY=1.031;entryDx=0;entryDy=0;entryPerimeter=0;exitX=-0.006;exitY=0.938;exitDx=0;exitDy=0;exitPerimeter=0;" edge="1" parent="1" source="AiYJyIK1sZ-USPavSWI0-2" target="AiYJyIK1sZ-USPavSWI0-22">
          <mxGeometry width="160" relative="1" as="geometry">
            <mxPoint x="420" y="140" as="sourcePoint" />
            <mxPoint x="460" y="280" as="targetPoint" />
            <Array as="points">
              <mxPoint x="215" y="131" />
            </Array>
          </mxGeometry>
        </mxCell>
        <mxCell id="AiYJyIK1sZ-USPavSWI0-26" value="*" style="text;strokeColor=none;fillColor=none;spacingLeft=4;spacingRight=4;overflow=hidden;rotatable=0;points=[[0,0.5],[1,0.5]];portConstraint=eastwest;fontSize=12;" vertex="1" parent="1">
          <mxGeometry x="370" y="110" width="40" height="30" as="geometry" />
        </mxCell>
        <mxCell id="AiYJyIK1sZ-USPavSWI0-28" style="edgeStyle=orthogonalEdgeStyle;rounded=0;orthogonalLoop=1;jettySize=auto;html=1;exitX=0;exitY=1;exitDx=0;exitDy=0;entryX=1.026;entryY=0.013;entryDx=0;entryDy=0;entryPerimeter=0;" edge="1" parent="1" source="AiYJyIK1sZ-USPavSWI0-27" target="AiYJyIK1sZ-USPavSWI0-24">
          <mxGeometry relative="1" as="geometry" />
        </mxCell>
        <mxCell id="AiYJyIK1sZ-USPavSWI0-27" value="1" style="text;html=1;strokeColor=none;fillColor=none;align=center;verticalAlign=middle;whiteSpace=wrap;rounded=0;" vertex="1" parent="1">
          <mxGeometry x="220" y="100" width="60" height="30" as="geometry" />
        </mxCell>
      </root>
    </mxGraphModel>
  </diagram>
</mxfile>
